<svg version="1.2" baseProfile="tiny-ps" xmlns="http://www.w3.org/2000/svg" viewBox="0 0 13 13" width="13" height="13">
	<title>Nav Top</title>
	<style>
		tspan { white-space:pre }
		.shp0 { fill: #8998c2 } 
	</style>
	<g id="Nav Top">
		<g id="Right">
			<g id="Social">
				<path id="Instagram Icon" class="shp0" d="M6.49 3.15C7.09 3.15 7.65 3.3 8.16 3.6C8.67 3.9 9.08 4.31 9.38 4.82C9.68 5.33 9.83 5.89 9.83 6.49C9.83 7.09 9.68 7.64 9.38 8.16C9.08 8.67 8.67 9.08 8.16 9.37C7.65 9.67 7.09 9.82 6.49 9.82C5.89 9.82 5.34 9.67 4.83 9.37C4.31 9.08 3.91 8.67 3.61 8.16C3.31 7.64 3.16 7.09 3.16 6.49C3.16 5.89 3.31 5.33 3.61 4.82C3.91 4.31 4.31 3.9 4.83 3.6C5.34 3.3 5.89 3.15 6.49 3.15ZM6.49 8.66C7.09 8.66 7.61 8.45 8.03 8.03C8.46 7.6 8.67 7.09 8.67 6.49C8.67 5.89 8.46 5.37 8.03 4.95C7.61 4.52 7.09 4.31 6.49 4.31C5.89 4.31 5.38 4.52 4.96 4.95C4.53 5.37 4.32 5.89 4.32 6.49C4.32 7.09 4.53 7.6 4.96 8.03C5.38 8.45 5.89 8.66 6.49 8.66ZM10.76 3C10.76 2.79 10.68 2.61 10.53 2.45C10.37 2.3 10.19 2.22 9.98 2.22C9.76 2.22 9.58 2.3 9.42 2.45C9.27 2.61 9.19 2.79 9.19 3C9.19 3.22 9.27 3.4 9.42 3.56C9.58 3.71 9.76 3.79 9.98 3.79C10.19 3.79 10.37 3.71 10.51 3.56C10.66 3.4 10.74 3.22 10.76 3ZM12.96 3.79C12.98 4.33 12.99 5.23 12.99 6.49C12.99 7.75 12.98 8.65 12.95 9.2C12.92 9.75 12.84 10.23 12.7 10.64C12.53 11.12 12.26 11.54 11.91 11.9C11.55 12.26 11.13 12.52 10.64 12.7C10.24 12.83 9.76 12.91 9.21 12.94C8.66 12.97 7.75 12.99 6.49 12.99C5.24 12.99 4.33 12.97 3.78 12.94C3.23 12.91 2.75 12.82 2.34 12.67C1.86 12.51 1.44 12.26 1.08 11.9C0.72 11.54 0.46 11.12 0.28 10.64C0.15 10.23 0.07 9.75 0.04 9.2C0.01 8.65 -0.01 7.75 -0.01 6.49C-0.01 5.23 0.01 4.33 0.04 3.77C0.07 3.22 0.15 2.74 0.28 2.34C0.46 1.85 0.72 1.43 1.08 1.08C1.44 0.72 1.86 0.45 2.34 0.28C2.75 0.14 3.23 0.06 3.78 0.03C4.33 0 5.24 -0.01 6.49 -0.01C7.75 -0.01 8.66 0 9.21 0.03C9.76 0.06 10.24 0.14 10.64 0.28C11.13 0.45 11.55 0.72 11.91 1.08C12.26 1.43 12.53 1.85 12.7 2.34C12.84 2.74 12.93 3.23 12.96 3.79ZM11.57 10.32C11.69 9.99 11.77 9.47 11.8 8.75C11.82 8.33 11.83 7.73 11.83 6.95L11.83 6.02C11.83 5.23 11.82 4.63 11.8 4.22C11.77 3.49 11.69 2.97 11.57 2.66C11.34 2.06 10.92 1.64 10.32 1.41C10.01 1.29 9.49 1.22 8.76 1.18C8.33 1.16 7.73 1.15 6.96 1.15L6.03 1.15C5.26 1.15 4.66 1.16 4.23 1.18C3.51 1.22 2.99 1.29 2.66 1.41C2.06 1.64 1.65 2.06 1.42 2.66C1.3 2.97 1.22 3.49 1.18 4.22C1.16 4.65 1.15 5.25 1.15 6.02L1.15 6.95C1.15 7.73 1.16 8.33 1.18 8.75C1.22 9.47 1.3 9.99 1.42 10.32C1.67 10.92 2.08 11.33 2.66 11.57C2.99 11.68 3.51 11.76 4.23 11.8C4.66 11.82 5.26 11.83 6.03 11.83L6.96 11.83C7.75 11.83 8.35 11.82 8.76 11.8C9.49 11.76 10.01 11.68 10.32 11.57C10.92 11.31 11.34 10.9 11.57 10.32Z" />
			</g>
		</g>
	</g>
</svg>