<svg version="1.2" baseProfile="tiny-ps" xmlns="http://www.w3.org/2000/svg" viewBox="0 0 13 11" width="13" height="11">
	<title>Nav Top</title>
	<style>
		tspan { white-space:pre }
		.shp0 { fill: #8998c2 } 
	</style>
	<g id="Nav Top">
		<g id="Right">
			<g id="Social">
				<path id="Twitter Icon" class="shp0" d="M13 1.3C12.52 1.52 12.01 1.67 11.47 1.74C12.02 1.4 12.44 0.85 12.64 0.21C12.12 0.52 11.55 0.75 10.95 0.88C10.46 0.34 9.77 0 9 0C7.53 0 6.33 1.24 6.33 2.78C6.33 2.99 6.36 3.21 6.4 3.41C4.19 3.3 2.22 2.19 0.91 0.51C0.68 0.92 0.55 1.4 0.55 1.91C0.55 2.87 1.02 3.72 1.73 4.22C1.29 4.2 0.88 4.08 0.52 3.87C0.52 3.88 0.52 3.89 0.52 3.9C0.52 5.25 1.44 6.37 2.66 6.63C2.44 6.69 2.2 6.73 1.96 6.73C1.79 6.73 1.62 6.71 1.46 6.67C1.8 7.78 2.78 8.58 3.95 8.6C3.04 9.35 1.89 9.79 0.64 9.79C0.42 9.79 0.21 9.78 0 9.75C1.18 10.54 2.58 11 4.09 11C8.99 11 11.68 6.77 11.68 3.1C11.68 2.98 11.67 2.86 11.67 2.74C12.19 2.35 12.64 1.86 13 1.3L13 1.3Z" />
			</g>
		</g>
	</g>
</svg>